<svg preserveAspectRatio="none" width="100%" height="100%" overflow="visible" style="display: block;" viewBox="0 0 37 16" fill="none" xmlns="http://www.w3.org/2000/svg">
<path id="ApplePay" fill-rule="evenodd" clip-rule="evenodd" d="M4.88573 2.82227C5.57203 2.88016 6.25833 2.47491 6.68726 1.96111C7.10905 1.43284 7.38785 0.723658 7.31636 0C6.70871 0.0289463 5.95807 0.405248 5.52914 0.933518C5.13595 1.38942 4.79995 2.12755 4.88573 2.82227ZM13.0498 12.1429V0.861128H17.2319C19.3909 0.861128 20.8993 2.36633 20.8993 4.56625C20.8993 6.76617 19.3623 8.28585 17.1747 8.28585H14.7798V12.1429H13.0498ZM7.30914 2.95974C6.70453 2.92451 6.15285 3.1438 5.70724 3.32092C5.42047 3.4349 5.17764 3.53143 4.9929 3.53143C4.78558 3.53143 4.53272 3.42974 4.24881 3.31558C3.87681 3.16598 3.4515 2.99495 3.0055 3.00316C1.9832 3.01763 1.0324 3.60379 0.510529 4.53731C-0.561808 6.40435 0.231721 9.16872 1.26831 10.6884C1.77589 11.441 2.38354 12.266 3.18422 12.237C3.53647 12.2236 3.78986 12.1147 4.05209 12.0021C4.35399 11.8724 4.66762 11.7377 5.15732 11.7377C5.63005 11.7377 5.92995 11.8689 6.21785 11.9948C6.49159 12.1146 6.75447 12.2296 7.14472 12.2226C7.97399 12.2081 8.49586 11.4699 9.00344 10.7173C9.55118 9.90961 9.79189 9.12129 9.82843 9.00165L9.83271 8.9878C9.83184 8.98692 9.82508 8.98379 9.81315 8.97826L9.81313 8.97825C9.63002 8.89339 8.23048 8.24483 8.21706 6.50566C8.20358 5.04588 9.32713 4.30627 9.504 4.18984C9.51477 4.18275 9.52202 4.17797 9.52531 4.17548C8.81042 3.10447 7.69518 2.98868 7.30914 2.95974ZM24.0592 12.2298C25.1458 12.2298 26.1538 11.6726 26.6114 10.7898H26.6471V12.143H28.2485V6.52743C28.2485 4.8992 26.9616 3.8499 24.9814 3.8499C23.1441 3.8499 21.7858 4.91368 21.7358 6.37546H23.2943C23.4229 5.68075 24.0592 5.22485 24.9314 5.22485C25.9894 5.22485 26.5828 5.72417 26.5828 6.64322V7.26556L24.4238 7.39582C22.4149 7.51884 21.3283 8.35105 21.3283 9.79836C21.3283 11.2601 22.4507 12.2298 24.0592 12.2298ZM24.5238 10.891C23.6016 10.891 23.0154 10.4424 23.0154 9.75489C23.0154 9.04571 23.5801 8.63323 24.6596 8.5681L26.5827 8.44507V9.08189C26.5827 10.1384 25.6962 10.891 24.5238 10.891ZM33.56 12.5844C32.8666 14.56 32.073 15.2113 30.3859 15.2113C30.2572 15.2113 29.8283 15.1968 29.7282 15.1679V13.8147C29.8354 13.8291 30.0999 13.8436 30.2358 13.8436C31.0007 13.8436 31.4296 13.518 31.6941 12.6713L31.8514 12.172L28.9204 3.95844H30.729L32.7665 10.6233H32.8022L34.8397 3.95844H36.5983L33.56 12.5844ZM14.7797 2.33742H16.7743C18.2755 2.33742 19.1334 3.14792 19.1334 4.57352C19.1334 5.99913 18.2755 6.81686 16.7671 6.81686H14.7797V2.33742Z" fill="var(--fill-0, black)"/>
</svg>
