<svg preserveAspectRatio="none" width="100%" height="100%" overflow="visible" style="display: block;" viewBox="0 0 35 12" fill="none" xmlns="http://www.w3.org/2000/svg">
<path id="visa-logo" fill-rule="evenodd" clip-rule="evenodd" d="M8.7457 11.0773H5.71829L3.44809 2.41639C3.34034 2.01798 3.11155 1.66577 2.77501 1.49977C1.93512 1.08261 1.00963 0.750604 0 0.58316V0.249715H4.87693C5.55001 0.249715 6.05483 0.750604 6.13896 1.33233L7.31687 7.57973L10.3428 0.249715H13.2861L8.7457 11.0773ZM14.9688 11.0773H12.1097L14.464 0.249715H17.3231L14.9688 11.0773ZM21.0222 3.24928C21.1063 2.66612 21.6111 2.33267 22.2001 2.33267C23.1256 2.24895 24.1337 2.41639 24.9751 2.83212L25.4799 0.500889C24.6385 0.167444 23.713 0 22.8731 0C20.0981 0 18.0789 1.49978 18.0789 3.58129C18.0789 5.16479 19.5092 5.99624 20.5188 6.49713C21.6111 6.99657 22.0318 7.33002 21.9476 7.82946C21.9476 8.57863 21.1063 8.91208 20.2664 8.91208C19.2568 8.91208 18.2471 8.66235 17.3231 8.24519L16.8183 10.5779C17.8279 10.9936 18.9202 11.161 19.9299 11.161C23.0414 11.2433 24.9751 9.74497 24.9751 7.49602C24.9751 4.6639 21.0222 4.4979 21.0222 3.24928V3.24928ZM34.9813 11.0773L32.7111 0.249715H30.2727C29.7679 0.249715 29.263 0.58316 29.0948 1.08261L24.8909 11.0773H27.8342L28.4217 9.49524H32.038L32.3746 11.0773H34.9813ZM30.6933 3.16557L31.5332 7.2463H29.1789L30.6933 3.16557Z" fill="var(--fill-0, #172B85)"/>
</svg>
